<svg width="20" height="20" viewBox="0 0 20 20" fill="none" xmlns="http://www.w3.org/2000/svg">
<g id="radix-icons:calendar">
<path id="Vector" fill-rule="evenodd" clip-rule="evenodd" d="M5.99967 1.3335C6.17649 1.3335 6.34605 1.40373 6.47108 1.52876C6.5961 1.65378 6.66634 1.82335 6.66634 2.00016V2.66683H13.333V2.00016C13.333 1.82335 13.4032 1.65378 13.5283 1.52876C13.6533 1.40373 13.8229 1.3335 13.9997 1.3335C14.1765 1.3335 14.3461 1.40373 14.4711 1.52876C14.5961 1.65378 14.6663 1.82335 14.6663 2.00016V2.66683H16.6663C17.1968 2.66683 17.7055 2.87754 18.0806 3.25262C18.4556 3.62769 18.6663 4.1364 18.6663 4.66683V16.6668C18.6663 17.1973 18.4556 17.706 18.0806 18.081C17.7055 18.4561 17.1968 18.6668 16.6663 18.6668H3.33301C2.80257 18.6668 2.29387 18.4561 1.91879 18.081C1.54372 17.706 1.33301 17.1973 1.33301 16.6668V4.66683C1.33301 4.1364 1.54372 3.62769 1.91879 3.25262C2.29387 2.87754 2.80257 2.66683 3.33301 2.66683H5.33301V2.00016C5.33301 1.82335 5.40325 1.65378 5.52827 1.52876C5.65329 1.40373 5.82286 1.3335 5.99967 1.3335ZM13.333 4.00016V4.66683C13.333 4.84364 13.4032 5.01321 13.5283 5.13823C13.6533 5.26326 13.8229 5.3335 13.9997 5.3335C14.1765 5.3335 14.3461 5.26326 14.4711 5.13823C14.5961 5.01321 14.6663 4.84364 14.6663 4.66683V4.00016H16.6663C16.8432 4.00016 17.0127 4.0704 17.1377 4.19542C17.2628 4.32045 17.333 4.49002 17.333 4.66683V6.66683H2.66634V4.66683C2.66634 4.49002 2.73658 4.32045 2.8616 4.19542C2.98663 4.0704 3.1562 4.00016 3.33301 4.00016H5.33301V4.66683C5.33301 4.84364 5.40325 5.01321 5.52827 5.13823C5.65329 5.26326 5.82286 5.3335 5.99967 5.3335C6.17649 5.3335 6.34605 5.26326 6.47108 5.13823C6.5961 5.01321 6.66634 4.84364 6.66634 4.66683V4.00016H13.333ZM2.66634 8.00016V16.6668C2.66634 16.8436 2.73658 17.0132 2.8616 17.1382C2.98663 17.2633 3.1562 17.3335 3.33301 17.3335H16.6663C16.8432 17.3335 17.0127 17.2633 17.1377 17.1382C17.2628 17.0132 17.333 16.8436 17.333 16.6668V8.00016H2.66634ZM9.33301 10.0002C9.33301 9.82335 9.40324 9.65378 9.52827 9.52876C9.65329 9.40373 9.82286 9.3335 9.99967 9.3335C10.1765 9.3335 10.3461 9.40373 10.4711 9.52876C10.5961 9.65378 10.6663 9.82335 10.6663 10.0002C10.6663 10.177 10.5961 10.3465 10.4711 10.4716C10.3461 10.5966 10.1765 10.6668 9.99967 10.6668C9.82286 10.6668 9.65329 10.5966 9.52827 10.4716C9.40324 10.3465 9.33301 10.177 9.33301 10.0002ZM12.6663 9.3335C12.4895 9.3335 12.32 9.40373 12.1949 9.52876C12.0699 9.65378 11.9997 9.82335 11.9997 10.0002C11.9997 10.177 12.0699 10.3465 12.1949 10.4716C12.32 10.5966 12.4895 10.6668 12.6663 10.6668C12.8432 10.6668 13.0127 10.5966 13.1377 10.4716C13.2628 10.3465 13.333 10.177 13.333 10.0002C13.333 9.82335 13.2628 9.65378 13.1377 9.52876C13.0127 9.40373 12.8432 9.3335 12.6663 9.3335ZM14.6663 10.0002C14.6663 9.82335 14.7366 9.65378 14.8616 9.52876C14.9866 9.40373 15.1562 9.3335 15.333 9.3335C15.5098 9.3335 15.6794 9.40373 15.8044 9.52876C15.9294 9.65378 15.9997 9.82335 15.9997 10.0002C15.9997 10.177 15.9294 10.3465 15.8044 10.4716C15.6794 10.5966 15.5098 10.6668 15.333 10.6668C15.1562 10.6668 14.9866 10.5966 14.8616 10.4716C14.7366 10.3465 14.6663 10.177 14.6663 10.0002ZM15.333 12.0002C15.1562 12.0002 14.9866 12.0704 14.8616 12.1954C14.7366 12.3204 14.6663 12.49 14.6663 12.6668C14.6663 12.8436 14.7366 13.0132 14.8616 13.1382C14.9866 13.2633 15.1562 13.3335 15.333 13.3335C15.5098 13.3335 15.6794 13.2633 15.8044 13.1382C15.9294 13.0132 15.9997 12.8436 15.9997 12.6668C15.9997 12.49 15.9294 12.3204 15.8044 12.1954C15.6794 12.0704 15.5098 12.0002 15.333 12.0002ZM11.9997 12.6668C11.9997 12.49 12.0699 12.3204 12.1949 12.1954C12.32 12.0704 12.4895 12.0002 12.6663 12.0002C12.8432 12.0002 13.0127 12.0704 13.1377 12.1954C13.2628 12.3204 13.333 12.49 13.333 12.6668C13.333 12.8436 13.2628 13.0132 13.1377 13.1382C13.0127 13.2633 12.8432 13.3335 12.6663 13.3335C12.4895 13.3335 12.32 13.2633 12.1949 13.1382C12.0699 13.0132 11.9997 12.8436 11.9997 12.6668ZM9.99967 12.0002C9.82286 12.0002 9.65329 12.0704 9.52827 12.1954C9.40324 12.3204 9.33301 12.49 9.33301 12.6668C9.33301 12.8436 9.40324 13.0132 9.52827 13.1382C9.65329 13.2633 9.82286 13.3335 9.99967 13.3335C10.1765 13.3335 10.3461 13.2633 10.4711 13.1382C10.5961 13.0132 10.6663 12.8436 10.6663 12.6668C10.6663 12.49 10.5961 12.3204 10.4711 12.1954C10.3461 12.0704 10.1765 12.0002 9.99967 12.0002ZM6.66634 12.6668C6.66634 12.49 6.73658 12.3204 6.8616 12.1954C6.98663 12.0704 7.1562 12.0002 7.33301 12.0002C7.50982 12.0002 7.67939 12.0704 7.80441 12.1954C7.92944 12.3204 7.99967 12.49 7.99967 12.6668C7.99967 12.8436 7.92944 13.0132 7.80441 13.1382C7.67939 13.2633 7.50982 13.3335 7.33301 13.3335C7.1562 13.3335 6.98663 13.2633 6.8616 13.1382C6.73658 13.0132 6.66634 12.8436 6.66634 12.6668ZM4.66634 12.0002C4.48953 12.0002 4.31996 12.0704 4.19494 12.1954C4.06991 12.3204 3.99967 12.49 3.99967 12.6668C3.99967 12.8436 4.06991 13.0132 4.19494 13.1382C4.31996 13.2633 4.48953 13.3335 4.66634 13.3335C4.84315 13.3335 5.01272 13.2633 5.13775 13.1382C5.26277 13.0132 5.33301 12.8436 5.33301 12.6668C5.33301 12.49 5.26277 12.3204 5.13775 12.1954C5.01272 12.0704 4.84315 12.0002 4.66634 12.0002ZM3.99967 15.3335C3.99967 15.1567 4.06991 14.9871 4.19494 14.8621C4.31996 14.7371 4.48953 14.6668 4.66634 14.6668C4.84315 14.6668 5.01272 14.7371 5.13775 14.8621C5.26277 14.9871 5.33301 15.1567 5.33301 15.3335C5.33301 15.5103 5.26277 15.6799 5.13775 15.8049C5.01272 15.9299 4.84315 16.0002 4.66634 16.0002C4.48953 16.0002 4.31996 15.9299 4.19494 15.8049C4.06991 15.6799 3.99967 15.5103 3.99967 15.3335ZM7.33301 14.6668C7.1562 14.6668 6.98663 14.7371 6.8616 14.8621C6.73658 14.9871 6.66634 15.1567 6.66634 15.3335C6.66634 15.5103 6.73658 15.6799 6.8616 15.8049C6.98663 15.9299 7.1562 16.0002 7.33301 16.0002C7.50982 16.0002 7.67939 15.9299 7.80441 15.8049C7.92944 15.6799 7.99967 15.5103 7.99967 15.3335C7.99967 15.1567 7.92944 14.9871 7.80441 14.8621C7.67939 14.7371 7.50982 14.6668 7.33301 14.6668ZM9.33301 15.3335C9.33301 15.1567 9.40324 14.9871 9.52827 14.8621C9.65329 14.7371 9.82286 14.6668 9.99967 14.6668C10.1765 14.6668 10.3461 14.7371 10.4711 14.8621C10.5961 14.9871 10.6663 15.1567 10.6663 15.3335C10.6663 15.5103 10.5961 15.6799 10.4711 15.8049C10.3461 15.9299 10.1765 16.0002 9.99967 16.0002C9.82286 16.0002 9.65329 15.9299 9.52827 15.8049C9.40324 15.6799 9.33301 15.5103 9.33301 15.3335ZM12.6663 14.6668C12.4895 14.6668 12.32 14.7371 12.1949 14.8621C12.0699 14.9871 11.9997 15.1567 11.9997 15.3335C11.9997 15.5103 12.0699 15.6799 12.1949 15.8049C12.32 15.9299 12.4895 16.0002 12.6663 16.0002C12.8432 16.0002 13.0127 15.9299 13.1377 15.8049C13.2628 15.6799 13.333 15.5103 13.333 15.3335C13.333 15.1567 13.2628 14.9871 13.1377 14.8621C13.0127 14.7371 12.8432 14.6668 12.6663 14.6668Z" fill="#2C2C2C"/>
</g>
</svg>
