<svg width="13" height="13" viewBox="0 0 13 13" fill="none" xmlns="http://www.w3.org/2000/svg">
<g id="ph:check-bold">
<path id="Vector" d="M10.8378 3.11911L4.87499 9.08091L4.44283 10.5874C4.49944 10.6443 4.56671 10.6893 4.64078 10.7201C4.71485 10.7508 4.79427 10.7667 4.87447 10.7667C4.95467 10.7667 5.03409 10.7508 5.10816 10.7201C5.18223 10.6893 5.2495 10.6443 5.30611 10.5874L5.41218 10.6935L5.41221 10.6935C5.41226 10.6934 5.41231 10.6934 5.41236 10.6933L11.8061 4.29959L11.8071 4.3006L11.9132 4.19453C12.0558 4.05192 12.1359 3.8585 12.1359 3.65682C12.1359 3.45514 12.0558 3.26172 11.9132 3.11911C11.7706 2.9765 11.5772 2.89639 11.3755 2.89639C11.1738 2.89639 10.9804 2.9765 10.8378 3.1191C10.8378 3.11911 10.8378 3.11911 10.8378 3.11911Z" fill="#00DDA8" stroke="#00DDA8" stroke-width="0.3"/>
</g>
</svg>
