<svg width="18" height="18" viewBox="0 0 18 18" fill="none" xmlns="http://www.w3.org/2000/svg">
<g id="delete_FILL1_wght400_GRAD200_opsz48 1">
<path id="Vector" d="M4.8562 16.0498C4.47183 16.0498 4.14761 15.9178 3.88354 15.6537C3.61948 15.3896 3.48745 15.0654 3.48745 14.6811V3.8998H3.2812C3.09683 3.8998 2.93823 3.83193 2.80542 3.69618C2.67261 3.56044 2.6062 3.39794 2.6062 3.20868C2.6062 3.01943 2.67253 2.85918 2.8052 2.72793C2.93785 2.59668 3.09651 2.53105 3.2812 2.53105H6.5062C6.5062 2.34355 6.56511 2.19043 6.68292 2.07168C6.80073 1.95293 6.95433 1.89355 7.1437 1.89355H10.875C11.0643 1.89355 11.2179 1.95246 11.3357 2.07027C11.4535 2.18809 11.5125 2.34168 11.5125 2.53105H14.7375C14.9275 2.53105 15.0906 2.59777 15.2268 2.73121C15.3631 2.86466 15.4312 3.02601 15.4312 3.21526C15.4312 3.40452 15.3631 3.56593 15.2268 3.69948C15.0906 3.83303 14.9275 3.8998 14.7375 3.8998H14.5312V14.6811C14.5312 15.0654 14.3992 15.3896 14.1351 15.6537C13.871 15.9178 13.5468 16.0498 13.1625 16.0498H4.8562ZM6.6937 13.0498H8.06245V5.49355H6.6937V13.0498ZM9.97495 13.0498H11.3437V5.49355H9.97495V13.0498Z" fill="#8C8C8C"/>
</g>
</svg>
