<svg width="120" height="85" viewBox="0 0 120 85" fill="none" xmlns="http://www.w3.org/2000/svg">
<g id="_&#235;&#160;&#136;&#236;&#157;&#180;&#236;&#150;&#180;_1" opacity="0.3" clip-path="url(#clip0_1820_4469)">
<path id="Vector" d="M103.43 32.2026H50.5034C47.4418 32.2026 44.96 34.6845 44.96 37.7459V79.4569C44.96 82.5184 47.4418 85.0002 50.5034 85.0002H103.43C106.491 85.0002 108.973 82.5184 108.973 79.4569V37.7459C108.973 34.6845 106.491 32.2026 103.43 32.2026Z" fill="#D7FFE4"/>
<g id="Group" filter="url(#filter0_d_1820_4469)">
<path id="Vector_2" d="M103.462 9.46867C103.049 8.75172 102.112 8.28711 101.071 8.28711H52.8544C51.813 8.28711 50.8758 8.75172 50.4632 9.46867L33.9292 38.2826C33.9292 40.9421 36.0681 43.101 38.7116 43.101C41.3551 43.101 43.494 40.9421 43.494 38.2826H53.0587C53.0587 40.9421 55.1976 43.101 57.8411 43.101C60.4846 43.101 62.6235 40.9421 62.6235 38.2826H72.1882C72.1882 40.9421 74.3271 43.101 76.9706 43.101C79.6141 43.101 81.753 40.9421 81.753 38.2826H91.3177C91.3177 40.9421 93.4566 43.101 96.1001 43.101C98.7436 43.101 100.882 40.9421 100.882 38.2826H110.447C110.447 40.9421 112.586 43.101 115.23 43.101C117.873 43.101 120.012 40.9421 120.012 38.2826L103.478 9.46867H103.462Z" fill="#5FC2AC"/>
<path id="Vector_3" d="M48.2763 43.1011C50.9158 43.1011 53.0587 40.9462 53.0587 38.2827H43.4939C43.4939 40.9422 45.6327 43.1011 48.2763 43.1011Z" fill="#D7FFE4"/>
<path id="Vector_4" d="M67.4019 43.1011C70.0414 43.1011 72.1843 40.9462 72.1843 38.2827H62.6195C62.6195 40.9422 64.7584 43.1011 67.4019 43.1011Z" fill="#D7FFE4"/>
<path id="Vector_5" d="M86.5274 43.1011C89.1669 43.1011 91.3097 40.9462 91.3097 38.2827H81.745C81.745 40.9422 83.8838 43.1011 86.5274 43.1011Z" fill="#D7FFE4"/>
<path id="Vector_6" d="M105.653 43.1011C108.292 43.1011 110.435 40.9462 110.435 38.2827H100.87C100.87 40.9422 103.009 43.1011 105.653 43.1011Z" fill="#D7FFE4"/>
</g>
<g id="Vector_7" filter="url(#filter1_d_1820_4469)">
<path d="M98.7276 0H55.1975C52.4037 0 50.1388 2.26484 50.1388 5.05867V13.3616C50.1388 16.1554 52.4037 18.4203 55.1975 18.4203H98.7276C101.521 18.4203 103.786 16.1554 103.786 13.3616V5.05867C103.786 2.26484 101.521 0 98.7276 0Z" fill="#5FC2AC"/>
</g>
<path id="Vector_8" d="M98.2349 1.98242H55.6982C53.568 1.98242 51.8411 3.7093 51.8411 5.8395V12.5804C51.8411 14.7106 53.568 16.4375 55.6982 16.4375H98.2349C100.365 16.4375 102.092 14.7106 102.092 12.5804V5.8395C102.092 3.7093 100.365 1.98242 98.2349 1.98242Z" fill="#D7FFE4"/>
<g id="Vector_9" filter="url(#filter2_d_1820_4469)">
<path d="M78.0441 52.4253H88.8385C91.2857 52.4253 93.2724 54.4119 93.2724 56.8591V85.0002H78.0441V52.4253Z" fill="#5FC2AC"/>
</g>
<g id="Vector_10" filter="url(#filter3_d_1820_4469)">
<path d="M76.9065 84.9961H61.6782V56.855C61.6782 54.4078 63.6648 52.4212 66.1121 52.4212H76.9065V84.9961Z" fill="#5FC2AC"/>
</g>
<g id="Vector_11" filter="url(#filter4_d_1820_4469)">
<path d="M28.6061 60.5756C31.9862 60.5756 34.7263 57.8355 34.7263 54.4555C34.7263 51.0755 31.9862 48.3354 28.6061 48.3354C25.2261 48.3354 22.486 51.0755 22.486 54.4555C22.486 57.8355 25.2261 60.5756 28.6061 60.5756Z" fill="#5FC2AC"/>
</g>
<g id="Vector_12" filter="url(#filter5_d_1820_4469)">
<path d="M20.5714 55.2608C23.1949 55.2608 25.3217 53.134 25.3217 50.5105C25.3217 47.887 23.1949 45.7603 20.5714 45.7603C17.9478 45.7603 15.821 47.887 15.821 50.5105C15.821 53.134 17.9478 55.2608 20.5714 55.2608Z" fill="#5FC2AC"/>
</g>
<g id="Vector_13" filter="url(#filter6_d_1820_4469)">
<path d="M24.729 62.5186C27.3525 62.5186 29.4793 60.3918 29.4793 57.7683C29.4793 55.1448 27.3525 53.0181 24.729 53.0181C22.1054 53.0181 19.9786 55.1448 19.9786 57.7683C19.9786 60.3918 22.1054 62.5186 24.729 62.5186Z" fill="#5FC2AC"/>
</g>
<g id="Vector_14" filter="url(#filter7_d_1820_4469)">
<path d="M34.7263 60.0069C37.3498 60.0069 39.4766 57.8801 39.4766 55.2566C39.4766 52.6331 37.3498 50.5063 34.7263 50.5063C32.1027 50.5063 29.976 52.6331 29.976 55.2566C29.976 57.8801 32.1027 60.0069 34.7263 60.0069Z" fill="#5FC2AC"/>
</g>
<g id="Vector_15" filter="url(#filter8_d_1820_4469)">
<path d="M16.4419 60.896C19.0654 60.896 21.1922 58.7693 21.1922 56.1458C21.1922 53.5223 19.0654 51.3955 16.4419 51.3955C13.8183 51.3955 11.6915 53.5223 11.6915 56.1458C11.6915 58.7693 13.8183 60.896 16.4419 60.896Z" fill="#5FC2AC"/>
</g>
<g id="Vector_16" filter="url(#filter9_d_1820_4469)">
<path d="M41.6595 60.8443C44.2831 60.8443 46.4098 58.7175 46.4098 56.094C46.4098 53.4705 44.2831 51.3438 41.6595 51.3438C39.036 51.3438 36.9092 53.4705 36.9092 56.094C36.9092 58.7175 39.036 60.8443 41.6595 60.8443Z" fill="#5FC2AC"/>
</g>
<g id="Vector_17" filter="url(#filter10_d_1820_4469)">
<path d="M37.2176 55.2608C39.8412 55.2608 41.968 53.134 41.968 50.5105C41.968 47.887 39.8412 45.7603 37.2176 45.7603C34.5941 45.7603 32.4673 47.887 32.4673 50.5105C32.4673 53.134 34.5941 55.2608 37.2176 55.2608Z" fill="#5FC2AC"/>
</g>
<g id="Vector_18" filter="url(#filter11_d_1820_4469)">
<path d="M44.0027 58.6011H13.8665C10.805 58.6011 8.32312 61.0829 8.32312 64.1444V79.4566C8.32312 82.518 10.805 84.9999 13.8665 84.9999H44.0027C47.0642 84.9999 49.5461 82.518 49.5461 79.4566V64.1444C49.5461 61.0829 47.0642 58.6011 44.0027 58.6011Z" fill="#D7FFE4"/>
</g>
<g id="Vector_19" filter="url(#filter12_d_1820_4469)">
<path d="M28.6062 51.3955C31.2297 51.3955 33.3565 49.2688 33.3565 46.6453C33.3565 44.0218 31.2297 41.895 28.6062 41.895C25.9826 41.895 23.8558 44.0218 23.8558 46.6453C23.8558 49.2688 25.9826 51.3955 28.6062 51.3955Z" fill="#5FC2AC"/>
</g>
<g id="Vector_20" filter="url(#filter13_d_1820_4469)">
<path d="M48.2803 56.4946H9.58876C7.72176 56.4946 6.20825 58.0081 6.20825 59.8751V59.8791C6.20825 61.7461 7.72176 63.2595 9.58876 63.2595H48.2803C50.1473 63.2595 51.6609 61.7461 51.6609 59.8791V59.8751C51.6609 58.0081 50.1473 56.4946 48.2803 56.4946Z" fill="#D7FFE4"/>
</g>
<path id="Vector_21" d="M11.9199 85.0001H20.8518C21.9493 85.0001 22.6662 84.1109 22.454 83.0135L20.247 71.6585C20.0347 70.561 18.9733 69.6719 17.8758 69.6719H8.94394C7.84647 69.6719 7.12952 70.561 7.3418 71.6585L9.54874 83.0135C9.76103 84.1109 10.8224 85.0001 11.9199 85.0001Z" fill="#5FC2AC"/>
<g id="Vector_22" filter="url(#filter14_d_1820_4469)">
<path d="M14.7517 85H2.28708C0.757041 85 -0.244294 83.7584 0.0521012 82.2283L3.13221 66.3835C3.4286 64.8535 4.91058 63.6118 6.44462 63.6118H18.9092C20.4393 63.6118 21.4406 64.8535 21.1442 66.3835L18.0641 82.2283C17.7677 83.7584 16.2857 85 14.7517 85Z" fill="#5FC2AC"/>
</g>
<g id="Vector_23" filter="url(#filter15_d_1820_4469)">
<path d="M74.0547 68.7105C74.7692 68.7105 75.3484 68.1312 75.3484 67.4168C75.3484 66.7023 74.7692 66.123 74.0547 66.123C73.3402 66.123 72.761 66.7023 72.761 67.4168C72.761 68.1312 73.3402 68.7105 74.0547 68.7105Z" fill="#926134"/>
</g>
<g id="Vector_24" filter="url(#filter16_d_1820_4469)">
<path d="M80.98 68.7105C81.6945 68.7105 82.2737 68.1312 82.2737 67.4168C82.2737 66.7023 81.6945 66.123 80.98 66.123C80.2655 66.123 79.6863 66.7023 79.6863 67.4168C79.6863 68.1312 80.2655 68.7105 80.98 68.7105Z" fill="#926134"/>
</g>
<g id="Group_2" filter="url(#filter17_d_1820_4469)">
<path id="Vector_25" d="M59.4312 11.9919C59.4192 11.9398 59.327 11.367 59.3631 11.6514C59.3391 11.4552 59.323 11.2549 59.315 11.0546C59.299 10.6541 59.315 10.2576 59.3471 9.86105C59.3671 9.67681 59.3671 9.66479 59.3471 9.81699C59.3631 9.71686 59.3791 9.62074 59.3991 9.5206C59.4352 9.32435 59.4833 9.13209 59.5353 8.93583C59.5834 8.75159 59.6475 8.57536 59.7035 8.39512C59.7636 8.23891 59.7596 8.24693 59.6875 8.42316C59.7196 8.35106 59.7556 8.27897 59.7957 8.20687C59.8317 8.13878 59.8758 8.07069 59.9198 8.0026C59.7997 8.14679 59.7917 8.1548 59.8998 8.03064C60.02 7.91849 60.0039 7.91849 59.8517 8.03865C59.9118 7.99459 59.9799 7.95855 60.044 7.9265C59.9559 7.99059 59.8558 8.02263 59.7436 8.01061C59.9198 8.01462 59.9078 8.00661 59.7116 7.98658C59.8718 8.03865 59.8718 8.02664 59.7076 7.95454C59.7837 7.99059 59.8598 8.03064 59.9278 8.0787C59.7957 7.96656 59.7957 7.96656 59.9278 8.0787C59.9879 8.13878 60.048 8.19886 60.1001 8.26295C59.9078 8.01862 60.1922 8.47122 60.2242 8.52329C60.2963 8.6795 60.3003 8.6835 60.2363 8.53531C60.2683 8.61942 60.3003 8.70353 60.3284 8.78764C60.3885 8.95987 60.4405 9.13209 60.4966 9.30432C60.6849 9.91312 61.2736 10.4378 61.9465 10.4058C62.6675 10.3737 63.1281 9.94516 63.3965 9.30432C63.4445 9.18416 63.4606 9.15612 63.3965 9.2923C63.4405 9.18817 63.4846 9.08803 63.5326 8.9879C63.6088 8.82769 63.6889 8.66748 63.777 8.51127C63.8331 8.41515 63.8971 8.32703 63.9532 8.2309C63.8811 8.35106 63.8691 8.31902 63.9612 8.21889C64.0213 8.1548 64.0814 8.09472 64.1415 8.03064C64.2496 7.9225 64.2496 7.96656 64.1375 8.03064C64.1695 8.01061 64.4699 7.82637 64.2937 7.9225C64.1375 8.01061 64.3818 7.90247 64.4098 7.88645C64.558 7.80234 64.2096 7.87043 64.3778 7.87844C64.4218 7.87844 64.6702 7.90648 64.4859 7.86642C64.3658 7.8464 64.3818 7.85841 64.53 7.89046L64.3858 7.83038C64.4499 7.87043 64.518 7.90648 64.5821 7.95054C64.4499 7.86242 64.4739 7.81836 64.538 7.94252C64.6662 8.19085 64.4739 7.79433 64.554 7.96255C64.5901 8.03465 64.6381 8.09873 64.6782 8.16682C64.6942 8.19486 64.8224 8.42716 64.7343 8.25894C64.6461 8.09072 64.7583 8.31902 64.7703 8.35907C64.8064 8.46321 64.8384 8.56735 64.8704 8.67148C64.9265 8.86374 64.9706 9.05599 65.0106 9.25225C65.0306 9.34838 65.0467 9.44851 65.0627 9.54464C65.0266 9.28429 65.0627 9.61673 65.0667 9.66479C65.0987 10.0894 65.0827 10.5099 65.0467 10.9305C65.0627 10.7662 65.0587 10.8704 65.0387 10.9745C65.0186 11.0787 65.0026 11.1708 64.9826 11.2669C64.9305 11.5112 64.8624 11.7475 64.7823 11.9838C64.538 12.7328 65.0667 13.6581 65.8317 13.8303C66.6568 14.0185 67.4178 13.582 67.6782 12.7809C68.0907 11.5192 68.1628 10.2015 67.9786 8.89178C67.8184 7.75027 67.4178 6.49662 66.5367 5.69957C65.4672 4.73029 63.9051 4.62615 62.6875 5.39917C61.542 6.12413 61.0093 7.29767 60.5086 8.49926H63.4045C63.036 7.3177 62.5513 6.16418 61.4619 5.47527C60.2963 4.7383 58.7423 4.88249 57.789 5.89983C57.008 6.73293 56.6475 7.90247 56.4712 9.00793C56.267 10.2776 56.295 11.5152 56.5513 12.7809C56.7076 13.5539 57.6648 14.0666 58.3978 13.8303C59.2149 13.5659 59.6154 12.8089 59.4472 11.9838L59.4312 11.9919Z" fill="#5FC2AC"/>
<path id="Vector_26" d="M71.9078 12.2965C71.8317 12.0803 71.7676 11.864 71.7195 11.6397C71.6995 11.5476 71.6955 11.4434 71.6674 11.3513C71.7636 11.6637 71.6955 11.5836 71.6835 11.4594C71.6795 11.3954 71.6714 11.3313 71.6674 11.2672C71.6514 11.0389 71.6514 10.8106 71.6674 10.5863C71.6674 10.5262 71.7155 10.1417 71.6795 10.398C71.6434 10.6424 71.7035 10.2779 71.7155 10.2138C71.7596 9.98951 71.8196 9.76922 71.8917 9.55694C71.9158 9.48885 72.0439 9.16041 71.9558 9.37269C71.8677 9.57296 71.9398 9.41275 71.9558 9.37269C71.9919 9.3006 72.0239 9.2245 72.064 9.1524C72.1601 8.96415 72.2682 8.78392 72.3884 8.60769C72.4204 8.55962 72.4805 8.49954 72.5006 8.44747C72.5006 8.44747 72.3083 8.67978 72.4164 8.55962C72.5046 8.4635 72.5847 8.36336 72.6728 8.27124C72.7008 8.2432 72.9131 8.03093 72.9211 8.03894C72.9331 8.05095 72.6648 8.20716 72.809 8.12705C72.849 8.10302 72.8891 8.07498 72.9291 8.04695C72.9171 8.05496 73.0973 7.95483 73.0973 7.95483C73.0973 7.97085 72.801 8.05095 72.9572 8.0149C73.0172 8.00289 73.0853 7.98286 73.1414 7.96284C73.2976 7.89875 72.861 7.96284 73.0293 7.97485C73.0893 7.97485 73.1614 7.97886 73.2215 7.97485C73.3737 7.95883 73.0733 7.95483 73.0573 7.94681C73.1374 7.99087 73.2936 8.0149 73.3817 8.03093C73.5419 8.06697 73.2375 7.98687 73.2455 7.97085C73.2455 7.97085 73.4338 8.06697 73.4218 8.05896C73.5219 8.11504 73.618 8.18313 73.7142 8.24721C73.8824 8.35535 73.5059 8.05896 73.6461 8.19915C73.6821 8.23519 73.7222 8.26724 73.7582 8.29928C73.8423 8.37938 73.9265 8.4635 74.0026 8.55161C74.0346 8.58766 74.0666 8.62771 74.0987 8.66376C74.2709 8.86002 74.0546 8.62371 74.0466 8.59166C74.0827 8.69981 74.2068 8.81997 74.2669 8.91609C74.3791 9.09633 74.4792 9.28458 74.5713 9.47683C74.5913 9.52089 74.6074 9.56895 74.6314 9.609C74.4672 9.33665 74.5553 9.41675 74.5913 9.52089C74.6354 9.64505 74.6795 9.76521 74.7155 9.89338C74.7876 10.1417 74.8036 10.4181 74.8877 10.6584C74.8877 10.6584 74.8517 10.334 74.8677 10.5022C74.8757 10.5823 74.8837 10.6664 74.8917 10.7465C74.8997 10.8627 74.9038 10.9748 74.9038 11.091C74.9038 11.2231 74.9038 11.3513 74.8917 11.4835C74.8917 11.5395 74.8477 11.9761 74.8717 11.7238C74.8957 11.4875 74.8717 11.7078 74.8597 11.7678C74.8477 11.8319 74.8357 11.896 74.8196 11.9601C74.7876 12.1043 74.7475 12.2445 74.7035 12.3847C74.4712 13.1336 74.9799 14.0549 75.7529 14.2311C76.566 14.4153 77.351 13.9868 77.5994 13.1817C78.3484 10.7585 77.6915 7.66645 75.6848 6.00826C75.12 5.54365 74.4832 5.15514 73.7542 5.03097C72.9131 4.89079 72.048 5.02296 71.327 5.49959C70.1614 6.27261 69.3764 7.52225 68.9598 8.83599C68.5433 10.1497 68.5353 11.7398 69.0039 13.0816C69.2642 13.8226 70.0453 14.3913 70.8504 14.131C71.5833 13.8947 72.1761 13.0776 71.8997 12.2845L71.9078 12.2965Z" fill="#5FC2AC"/>
<path id="Vector_27" d="M88.3778 7.87475C90.9612 7.85473 93.5406 7.83069 96.1241 7.81067C96.9091 7.80266 97.6621 7.12577 97.6261 6.30869C97.59 5.49161 96.9652 4.7987 96.1241 4.80671C93.5406 4.82674 90.9612 4.85077 88.3778 4.87079C87.5927 4.8788 86.8397 5.5557 86.8758 6.37277C86.9118 7.18985 87.5366 7.88276 88.3778 7.87475Z" fill="#5FC2AC"/>
<path id="Vector_28" d="M90.5848 7.12166C90.737 9.06822 90.8892 11.0148 91.0414 12.9614C91.1015 13.7424 91.6902 14.5034 92.5434 14.4633C93.3044 14.4273 94.1095 13.7985 94.0454 12.9614C93.8932 11.0148 93.741 9.06822 93.5888 7.12166C93.5287 6.34063 92.9399 5.57963 92.0868 5.61968C91.3258 5.65573 90.5207 6.28455 90.5848 7.12166Z" fill="#5FC2AC"/>
<path id="Vector_29" d="M71.0467 11.2752C72.2483 11.3313 73.4459 11.3914 74.6475 11.4474C75.4325 11.4835 76.1856 10.7305 76.1495 9.94547C76.1135 9.10036 75.4886 8.48354 74.6475 8.44349C73.4459 8.38742 72.2483 8.32734 71.0467 8.27126C70.2617 8.23522 69.5087 8.98821 69.5447 9.77324C69.5807 10.6184 70.2056 11.2352 71.0467 11.2752Z" fill="#5FC2AC"/>
<path id="Vector_30" d="M82.2056 12.2443C82.1295 11.8918 82.0614 11.5354 82.0053 11.1789C81.9772 10.9986 81.9492 10.8224 81.9252 10.6422C81.9732 10.9946 81.9011 10.4299 81.8971 10.3698C81.825 9.69693 81.785 9.02004 81.773 8.33914C81.769 8.03474 81.765 7.73034 81.789 7.42594C81.793 7.35785 81.801 7.28976 81.809 7.22167C81.777 7.44997 81.773 7.48602 81.805 7.31779C81.813 7.28575 81.8891 6.92928 81.9092 6.93329C81.817 7.14156 81.805 7.1696 81.8731 7.02541C81.9011 6.96934 81.9372 6.91326 81.9732 6.86119C81.8331 7.03342 81.813 7.06146 81.9212 6.9453C82.0373 6.84117 82.0133 6.85719 81.8491 6.99337C81.9933 6.91326 81.9652 6.92127 81.769 7.00939C81.8331 6.98536 81.9011 6.96533 81.9652 6.95331C81.7369 6.97735 81.7049 6.98135 81.8771 6.96533C81.9292 6.96533 81.9812 6.96533 82.0333 6.96533C82.1495 6.97334 82.1054 6.96533 81.8971 6.93729C81.9652 6.94931 82.0373 6.96533 82.1014 6.98135C82.1695 7.00138 82.2376 7.0214 82.3017 7.04544C82.0974 6.95331 82.0654 6.9453 82.2096 7.0174C82.2656 7.04944 82.3217 7.08148 82.3778 7.11753C82.51 7.20965 82.4859 7.18963 82.3097 7.05745C82.3417 7.04143 82.562 7.30578 82.5901 7.33382C82.6942 7.45798 82.6742 7.43395 82.538 7.26172C82.574 7.31779 82.6101 7.36986 82.6421 7.42594C82.6742 7.48201 82.7062 7.54209 82.7343 7.59816C82.8023 7.74636 82.7903 7.71832 82.6982 7.51005C82.7302 7.50204 82.7823 7.88654 82.8023 7.89055C82.7743 7.65424 82.7703 7.61819 82.7863 7.78241C82.7863 7.83047 82.7903 7.87853 82.7903 7.9306C82.7903 7.97866 82.7903 8.03073 82.7903 8.0788C82.7743 8.24702 82.7823 8.21097 82.8064 7.97065C82.7863 7.97065 82.7343 8.35516 82.6982 8.34715C82.7903 8.13888 82.7983 8.11084 82.7303 8.25503C82.6982 8.3111 82.6662 8.37118 82.6301 8.42325C82.538 8.55543 82.562 8.5354 82.6942 8.35917C82.6542 8.41124 82.6101 8.4593 82.566 8.50736C82.522 8.55542 82.4739 8.60349 82.4258 8.64755C82.3057 8.75168 82.3297 8.73566 82.5019 8.59948C82.5019 8.65556 82.2136 8.77972 82.1695 8.80776C82.0213 8.87985 82.0533 8.86784 82.2616 8.77571C82.2015 8.79975 82.1375 8.81977 82.0774 8.8398C82.0133 8.85983 81.9492 8.87184 81.8851 8.88786C82.1214 8.86383 82.1575 8.85582 81.9933 8.87184C81.2122 8.93993 80.4512 9.51269 80.4913 10.3738C80.5313 11.235 81.1521 11.7837 81.9933 11.8758C82.3818 11.9199 81.6648 11.8117 82.0493 11.8838C82.1415 11.9038 82.2376 11.9159 82.3297 11.9359C82.534 11.9799 82.7383 12.032 82.9425 12.0921C83.1268 12.1482 83.307 12.2122 83.4873 12.2763C83.8477 12.4045 83.2069 12.1361 83.5513 12.3004C83.6395 12.3404 83.7236 12.3805 83.8117 12.4245C84.1722 12.6048 84.5166 12.809 84.8451 13.0453C84.8811 13.0694 85.1335 13.2736 84.9692 13.1335C84.805 12.9933 85.0533 13.2056 85.0854 13.2336C85.2576 13.3818 85.4258 13.542 85.5861 13.7062C86.1348 14.271 87.1642 14.299 87.7089 13.7062C88.2536 13.1134 88.2937 12.1842 87.7089 11.5834C86.1708 10.0093 84.1682 9.11616 81.9973 8.87184V11.8758C83.4312 11.7476 84.809 10.9466 85.4178 9.59279C86.0787 8.12286 85.8224 6.5608 84.821 5.31516C83.9238 4.20169 82.2496 3.61291 80.8838 4.14161C79.2817 4.76243 78.785 6.3365 78.773 7.92259C78.761 9.63685 78.9612 11.3591 79.3137 13.0333C79.4779 13.8023 80.4232 14.323 81.1602 14.0827C81.9732 13.8184 82.3818 13.0614 82.2096 12.2363L82.2056 12.2443Z" fill="#5FC2AC"/>
</g>
</g>
<defs>
<filter id="filter0_d_1820_4469" x="33.9292" y="8.28711" width="86.0828" height="39.314" filterUnits="userSpaceOnUse" color-interpolation-filters="sRGB">
<feFlood flood-opacity="0" result="BackgroundImageFix"/>
<feColorMatrix in="SourceAlpha" type="matrix" values="0 0 0 0 0 0 0 0 0 0 0 0 0 0 0 0 0 0 127 0" result="hardAlpha"/>
<feOffset dy="4.5"/>
<feColorMatrix type="matrix" values="0 0 0 0 0.498039 0 0 0 0 0.933333 0 0 0 0 0.827451 0 0 0 0.5 0"/>
<feBlend mode="normal" in2="BackgroundImageFix" result="effect1_dropShadow_1820_4469"/>
<feBlend mode="normal" in="SourceGraphic" in2="effect1_dropShadow_1820_4469" result="shape"/>
</filter>
<filter id="filter1_d_1820_4469" x="50.1388" y="0" width="55.6476" height="23.9204" filterUnits="userSpaceOnUse" color-interpolation-filters="sRGB">
<feFlood flood-opacity="0" result="BackgroundImageFix"/>
<feColorMatrix in="SourceAlpha" type="matrix" values="0 0 0 0 0 0 0 0 0 0 0 0 0 0 0 0 0 0 127 0" result="hardAlpha"/>
<feOffset dx="2" dy="5.5"/>
<feColorMatrix type="matrix" values="0 0 0 0 0.498039 0 0 0 0 0.933333 0 0 0 0 0.827451 0 0 0 0.5 0"/>
<feBlend mode="normal" in2="BackgroundImageFix" result="effect1_dropShadow_1820_4469"/>
<feBlend mode="normal" in="SourceGraphic" in2="effect1_dropShadow_1820_4469" result="shape"/>
</filter>
<filter id="filter2_d_1820_4469" x="78.0441" y="52.4253" width="20.7483" height="32.5747" filterUnits="userSpaceOnUse" color-interpolation-filters="sRGB">
<feFlood flood-opacity="0" result="BackgroundImageFix"/>
<feColorMatrix in="SourceAlpha" type="matrix" values="0 0 0 0 0 0 0 0 0 0 0 0 0 0 0 0 0 0 127 0" result="hardAlpha"/>
<feOffset dx="5.52"/>
<feColorMatrix type="matrix" values="0 0 0 0 0.701961 0 0 0 0 0.960784 0 0 0 0 0.898039 0 0 0 0.5 0"/>
<feBlend mode="normal" in2="BackgroundImageFix" result="effect1_dropShadow_1820_4469"/>
<feBlend mode="normal" in="SourceGraphic" in2="effect1_dropShadow_1820_4469" result="shape"/>
</filter>
<filter id="filter3_d_1820_4469" x="61.6782" y="52.4214" width="20.7483" height="32.5747" filterUnits="userSpaceOnUse" color-interpolation-filters="sRGB">
<feFlood flood-opacity="0" result="BackgroundImageFix"/>
<feColorMatrix in="SourceAlpha" type="matrix" values="0 0 0 0 0 0 0 0 0 0 0 0 0 0 0 0 0 0 127 0" result="hardAlpha"/>
<feOffset dx="5.52"/>
<feColorMatrix type="matrix" values="0 0 0 0 0.701961 0 0 0 0 0.960784 0 0 0 0 0.898039 0 0 0 0.5 0"/>
<feBlend mode="normal" in2="BackgroundImageFix" result="effect1_dropShadow_1820_4469"/>
<feBlend mode="normal" in="SourceGraphic" in2="effect1_dropShadow_1820_4469" result="shape"/>
</filter>
<filter id="filter4_d_1820_4469" x="22.486" y="48.3354" width="16.2404" height="15.7402" filterUnits="userSpaceOnUse" color-interpolation-filters="sRGB">
<feFlood flood-opacity="0" result="BackgroundImageFix"/>
<feColorMatrix in="SourceAlpha" type="matrix" values="0 0 0 0 0 0 0 0 0 0 0 0 0 0 0 0 0 0 127 0" result="hardAlpha"/>
<feOffset dx="4" dy="3.5"/>
<feColorMatrix type="matrix" values="0 0 0 0 0.498039 0 0 0 0 0.933333 0 0 0 0 0.827451 0 0 0 0.5 0"/>
<feBlend mode="normal" in2="BackgroundImageFix" result="effect1_dropShadow_1820_4469"/>
<feBlend mode="normal" in="SourceGraphic" in2="effect1_dropShadow_1820_4469" result="shape"/>
</filter>
<filter id="filter5_d_1820_4469" x="15.821" y="45.7603" width="13.5006" height="13.0005" filterUnits="userSpaceOnUse" color-interpolation-filters="sRGB">
<feFlood flood-opacity="0" result="BackgroundImageFix"/>
<feColorMatrix in="SourceAlpha" type="matrix" values="0 0 0 0 0 0 0 0 0 0 0 0 0 0 0 0 0 0 127 0" result="hardAlpha"/>
<feOffset dx="4" dy="3.5"/>
<feColorMatrix type="matrix" values="0 0 0 0 0.498039 0 0 0 0 0.933333 0 0 0 0 0.827451 0 0 0 0.5 0"/>
<feBlend mode="normal" in2="BackgroundImageFix" result="effect1_dropShadow_1820_4469"/>
<feBlend mode="normal" in="SourceGraphic" in2="effect1_dropShadow_1820_4469" result="shape"/>
</filter>
<filter id="filter6_d_1820_4469" x="19.9786" y="50.5181" width="10.5006" height="12.0005" filterUnits="userSpaceOnUse" color-interpolation-filters="sRGB">
<feFlood flood-opacity="0" result="BackgroundImageFix"/>
<feColorMatrix in="SourceAlpha" type="matrix" values="0 0 0 0 0 0 0 0 0 0 0 0 0 0 0 0 0 0 127 0" result="hardAlpha"/>
<feOffset dx="1" dy="-2.5"/>
<feColorMatrix type="matrix" values="0 0 0 0 0.498039 0 0 0 0 0.933333 0 0 0 0 0.827451 0 0 0 0.5 0"/>
<feBlend mode="normal" in2="BackgroundImageFix" result="effect1_dropShadow_1820_4469"/>
<feBlend mode="normal" in="SourceGraphic" in2="effect1_dropShadow_1820_4469" result="shape"/>
</filter>
<filter id="filter7_d_1820_4469" x="29.976" y="50.5063" width="13.5006" height="13.0005" filterUnits="userSpaceOnUse" color-interpolation-filters="sRGB">
<feFlood flood-opacity="0" result="BackgroundImageFix"/>
<feColorMatrix in="SourceAlpha" type="matrix" values="0 0 0 0 0 0 0 0 0 0 0 0 0 0 0 0 0 0 127 0" result="hardAlpha"/>
<feOffset dx="4" dy="3.5"/>
<feColorMatrix type="matrix" values="0 0 0 0 0.498039 0 0 0 0 0.933333 0 0 0 0 0.827451 0 0 0 0.5 0"/>
<feBlend mode="normal" in2="BackgroundImageFix" result="effect1_dropShadow_1820_4469"/>
<feBlend mode="normal" in="SourceGraphic" in2="effect1_dropShadow_1820_4469" result="shape"/>
</filter>
<filter id="filter8_d_1820_4469" x="11.6915" y="49.3955" width="13.0006" height="11.5005" filterUnits="userSpaceOnUse" color-interpolation-filters="sRGB">
<feFlood flood-opacity="0" result="BackgroundImageFix"/>
<feColorMatrix in="SourceAlpha" type="matrix" values="0 0 0 0 0 0 0 0 0 0 0 0 0 0 0 0 0 0 127 0" result="hardAlpha"/>
<feOffset dx="3.5" dy="-2"/>
<feColorMatrix type="matrix" values="0 0 0 0 0.498039 0 0 0 0 0.933333 0 0 0 0 0.827451 0 0 0 0.5 0"/>
<feBlend mode="normal" in2="BackgroundImageFix" result="effect1_dropShadow_1820_4469"/>
<feBlend mode="normal" in="SourceGraphic" in2="effect1_dropShadow_1820_4469" result="shape"/>
</filter>
<filter id="filter9_d_1820_4469" x="36.9092" y="51.3438" width="13.5006" height="13.0005" filterUnits="userSpaceOnUse" color-interpolation-filters="sRGB">
<feFlood flood-opacity="0" result="BackgroundImageFix"/>
<feColorMatrix in="SourceAlpha" type="matrix" values="0 0 0 0 0 0 0 0 0 0 0 0 0 0 0 0 0 0 127 0" result="hardAlpha"/>
<feOffset dx="4" dy="3.5"/>
<feColorMatrix type="matrix" values="0 0 0 0 0.498039 0 0 0 0 0.933333 0 0 0 0 0.827451 0 0 0 0.5 0"/>
<feBlend mode="normal" in2="BackgroundImageFix" result="effect1_dropShadow_1820_4469"/>
<feBlend mode="normal" in="SourceGraphic" in2="effect1_dropShadow_1820_4469" result="shape"/>
</filter>
<filter id="filter10_d_1820_4469" x="29.4673" y="45.7603" width="12.5006" height="11.5005" filterUnits="userSpaceOnUse" color-interpolation-filters="sRGB">
<feFlood flood-opacity="0" result="BackgroundImageFix"/>
<feColorMatrix in="SourceAlpha" type="matrix" values="0 0 0 0 0 0 0 0 0 0 0 0 0 0 0 0 0 0 127 0" result="hardAlpha"/>
<feOffset dx="-3" dy="2"/>
<feColorMatrix type="matrix" values="0 0 0 0 0.498039 0 0 0 0 0.933333 0 0 0 0 0.827451 0 0 0 0.5 0"/>
<feBlend mode="normal" in2="BackgroundImageFix" result="effect1_dropShadow_1820_4469"/>
<feBlend mode="normal" in="SourceGraphic" in2="effect1_dropShadow_1820_4469" result="shape"/>
</filter>
<filter id="filter11_d_1820_4469" x="8.32312" y="58.6011" width="46.223" height="26.3989" filterUnits="userSpaceOnUse" color-interpolation-filters="sRGB">
<feFlood flood-opacity="0" result="BackgroundImageFix"/>
<feColorMatrix in="SourceAlpha" type="matrix" values="0 0 0 0 0 0 0 0 0 0 0 0 0 0 0 0 0 0 127 0" result="hardAlpha"/>
<feOffset dx="5"/>
<feColorMatrix type="matrix" values="0 0 0 0 0.843137 0 0 0 0 1 0 0 0 0 0.894118 0 0 0 0.5 0"/>
<feBlend mode="normal" in2="BackgroundImageFix" result="effect1_dropShadow_1820_4469"/>
<feBlend mode="normal" in="SourceGraphic" in2="effect1_dropShadow_1820_4469" result="shape"/>
</filter>
<filter id="filter12_d_1820_4469" x="23.8558" y="41.895" width="13.5006" height="13.0005" filterUnits="userSpaceOnUse" color-interpolation-filters="sRGB">
<feFlood flood-opacity="0" result="BackgroundImageFix"/>
<feColorMatrix in="SourceAlpha" type="matrix" values="0 0 0 0 0 0 0 0 0 0 0 0 0 0 0 0 0 0 127 0" result="hardAlpha"/>
<feOffset dx="4" dy="3.5"/>
<feColorMatrix type="matrix" values="0 0 0 0 0.498039 0 0 0 0 0.933333 0 0 0 0 0.827451 0 0 0 0.5 0"/>
<feBlend mode="normal" in2="BackgroundImageFix" result="effect1_dropShadow_1820_4469"/>
<feBlend mode="normal" in="SourceGraphic" in2="effect1_dropShadow_1820_4469" result="shape"/>
</filter>
<filter id="filter13_d_1820_4469" x="6.20825" y="56.4946" width="47.4526" height="12.2651" filterUnits="userSpaceOnUse" color-interpolation-filters="sRGB">
<feFlood flood-opacity="0" result="BackgroundImageFix"/>
<feColorMatrix in="SourceAlpha" type="matrix" values="0 0 0 0 0 0 0 0 0 0 0 0 0 0 0 0 0 0 127 0" result="hardAlpha"/>
<feOffset dx="2" dy="5.5"/>
<feColorMatrix type="matrix" values="0 0 0 0 0.843137 0 0 0 0 1 0 0 0 0 0.894118 0 0 0 0.5 0"/>
<feBlend mode="normal" in2="BackgroundImageFix" result="effect1_dropShadow_1820_4469"/>
<feBlend mode="normal" in="SourceGraphic" in2="effect1_dropShadow_1820_4469" result="shape"/>
</filter>
<filter id="filter14_d_1820_4469" x="0.00012207" y="63.6118" width="24.196" height="21.3882" filterUnits="userSpaceOnUse" color-interpolation-filters="sRGB">
<feFlood flood-opacity="0" result="BackgroundImageFix"/>
<feColorMatrix in="SourceAlpha" type="matrix" values="0 0 0 0 0 0 0 0 0 0 0 0 0 0 0 0 0 0 127 0" result="hardAlpha"/>
<feOffset dx="3"/>
<feColorMatrix type="matrix" values="0 0 0 0 0.498039 0 0 0 0 0.933333 0 0 0 0 0.827451 0 0 0 0.5 0"/>
<feBlend mode="normal" in2="BackgroundImageFix" result="effect1_dropShadow_1820_4469"/>
<feBlend mode="normal" in="SourceGraphic" in2="effect1_dropShadow_1820_4469" result="shape"/>
</filter>
<filter id="filter15_d_1820_4469" x="72.761" y="66.123" width="4.1574" height="3.6374" filterUnits="userSpaceOnUse" color-interpolation-filters="sRGB">
<feFlood flood-opacity="0" result="BackgroundImageFix"/>
<feColorMatrix in="SourceAlpha" type="matrix" values="0 0 0 0 0 0 0 0 0 0 0 0 0 0 0 0 0 0 127 0" result="hardAlpha"/>
<feOffset dx="1.57" dy="1.05"/>
<feColorMatrix type="matrix" values="0 0 0 0 0.701961 0 0 0 0 0.960784 0 0 0 0 0.898039 0 0 0 0.5 0"/>
<feBlend mode="normal" in2="BackgroundImageFix" result="effect1_dropShadow_1820_4469"/>
<feBlend mode="normal" in="SourceGraphic" in2="effect1_dropShadow_1820_4469" result="shape"/>
</filter>
<filter id="filter16_d_1820_4469" x="79.6863" y="66.123" width="4.1574" height="3.6374" filterUnits="userSpaceOnUse" color-interpolation-filters="sRGB">
<feFlood flood-opacity="0" result="BackgroundImageFix"/>
<feColorMatrix in="SourceAlpha" type="matrix" values="0 0 0 0 0 0 0 0 0 0 0 0 0 0 0 0 0 0 127 0" result="hardAlpha"/>
<feOffset dx="1.57" dy="1.05"/>
<feColorMatrix type="matrix" values="0 0 0 0 0.701961 0 0 0 0 0.960784 0 0 0 0 0.898039 0 0 0 0.5 0"/>
<feBlend mode="normal" in2="BackgroundImageFix" result="effect1_dropShadow_1820_4469"/>
<feBlend mode="normal" in="SourceGraphic" in2="effect1_dropShadow_1820_4469" result="shape"/>
</filter>
<filter id="filter17_d_1820_4469" x="56.3362" y="3.94531" width="43.2911" height="12.0195" filterUnits="userSpaceOnUse" color-interpolation-filters="sRGB">
<feFlood flood-opacity="0" result="BackgroundImageFix"/>
<feColorMatrix in="SourceAlpha" type="matrix" values="0 0 0 0 0 0 0 0 0 0 0 0 0 0 0 0 0 0 127 0" result="hardAlpha"/>
<feOffset dx="2" dy="1.5"/>
<feColorMatrix type="matrix" values="0 0 0 0 0.498039 0 0 0 0 0.933333 0 0 0 0 0.827451 0 0 0 0.5 0"/>
<feBlend mode="normal" in2="BackgroundImageFix" result="effect1_dropShadow_1820_4469"/>
<feBlend mode="normal" in="SourceGraphic" in2="effect1_dropShadow_1820_4469" result="shape"/>
</filter>
<clipPath id="clip0_1820_4469">
<rect width="120" height="85" fill="white"/>
</clipPath>
</defs>
</svg>
